<?xml version="1.0" encoding="utf-8"?>
<!-- Generator: Adobe Illustrator 19.0.0, SVG Export Plug-In . SVG Version: 6.00 Build 0)  -->
<svg version="1.1" id="layer" xmlns="http://www.w3.org/2000/svg" xmlns:xlink="http://www.w3.org/1999/xlink" x="0px" y="0px"
	 viewBox="0 0 816.8 267.4" style="enable-background:new 0 0 816.8 267.4;" xml:space="preserve">
<style type="text/css">
	.st0{fill:#E8E8E8;}
</style>
<g id="Container">
	<polygon id="I" class="st0" points="0.2,267.4 0,63.4 71.5,63.4 71.5,267.4 	"/>
	<rect id="I_x5F_dot" class="st0" width="71.5" height="45.1"/>
	<path id="O" class="st0" d="M411.4,75.1c19.2,9.9,29.8,23.1,31.9,39.8v152.5H190.6c-16.7,0-33-4-48.9-12.1
		c-19.7-10.1-30.5-23.5-32.2-40.2V63.4h253.3C379.7,63.4,395.9,67.3,411.4,75.1z M373.8,122.9c0-9.4-3.5-16.8-10.6-22.4
		c-6.1-4.8-14-7.2-23.9-7.2H177.7v114.5c0,9.4,3.8,16.8,11.4,22.4c6.6,4.8,14.8,7.2,24.7,7.2h160V122.9z"/>
	<path id="N" class="st0" d="M783.8,75.1c20,9.9,31,23.1,33,39.8v152.5h-69.4V122.9c0-9.6-3.6-16.9-10.8-22
		c-7.2-5.1-15.7-7.6-25.6-7.6H551.7v174.1h-70.5v-204h253.3C751.4,63.4,767.9,67.3,783.8,75.1z"/>
</g>
</svg>
